<svg width="144" height="24" viewBox="0 0 144 24" fill="none" xmlns="http://www.w3.org/2000/svg">
<path d="M22 6C22 4.9 21.1 4 20 4H4C2.9 4 2 4.9 2 6V18C2 19.1 2.9 20 4 20H20C21.1 20 22 19.1 22 18V6ZM20 6L12 11L4 6H20ZM20 18H4V8L12 13L20 8V18Z" fill="white"/>
<path d="M32.34 16V12.424H36.3V16H37.788V7.576H36.3V11.128H32.34V7.576H30.852V16H32.34ZM45.1887 12.976C45.1887 10.948 43.9167 9.904 42.2007 9.904C40.3647 9.904 39.0927 11.104 39.0927 13.012C39.0927 14.92 40.3407 16.12 42.2487 16.12C43.5807 16.12 44.6367 15.436 45.0447 14.26L43.7247 14.068C43.4607 14.668 42.9327 14.992 42.2367 14.992C41.3007 14.992 40.5807 14.368 40.5087 13.3H45.1767L45.1887 12.976ZM42.2127 10.972C43.0527 10.972 43.6887 11.524 43.7727 12.412H40.5327C40.6767 11.476 41.2887 10.972 42.2127 10.972ZM47.8523 16V7H46.4363V16H47.8523ZM50.8288 16V7H49.4128V16H50.8288ZM55.3174 16.12C57.1894 16.108 58.5214 14.92 58.5214 13.012C58.5214 11.116 57.1894 9.916 55.3174 9.904C53.4334 9.916 52.1014 11.116 52.1014 13.012C52.1014 14.92 53.4334 16.108 55.3174 16.12ZM55.3174 14.98C54.2494 14.98 53.5294 14.176 53.5294 13.012C53.5294 11.86 54.2494 11.044 55.3174 11.044C56.3734 11.044 57.0934 11.86 57.0934 13.012C57.0934 14.176 56.3734 14.98 55.3174 14.98ZM64.3076 17.296C65.1716 17.296 65.9876 17.056 66.6716 16.636L66.2996 15.916C65.6876 16.276 65.0276 16.48 64.3196 16.48C62.2556 16.48 60.5876 14.896 60.5876 12.808C60.5876 10.624 62.1836 9.028 64.3196 9.028C66.5156 9.028 68.0396 10.684 68.0396 12.724C68.0396 13.804 67.6916 14.332 67.0076 14.332C66.4316 14.332 66.1676 14.044 66.1676 13.42V12.088C66.1676 10.888 65.2556 10.444 64.3196 10.444C63.2996 10.444 62.6516 10.924 62.4236 11.668L63.3596 11.896C63.5036 11.356 63.8156 11.128 64.3196 11.128C64.8476 11.128 65.1836 11.404 65.1836 11.932V12.196L63.8396 12.496C63.0956 12.664 62.3156 13.024 62.3156 13.876C62.3156 14.668 63.0236 15.124 63.8516 15.124C64.5356 15.124 65.0876 14.8 65.3876 14.236H65.4596C65.7356 14.824 66.1796 15.076 66.9116 15.076C68.1716 15.076 68.8556 14.176 68.8556 12.64C68.8556 10.264 66.9716 8.2 64.3076 8.2C61.7276 8.2 59.7716 10.18 59.7716 12.82C59.7716 15.352 61.7996 17.296 64.3076 17.296ZM64.0556 14.416C63.6236 14.416 63.2996 14.188 63.2996 13.804C63.2996 13.432 63.5276 13.216 64.1876 13.036L65.1836 12.784V13.06C65.1836 13.888 64.7396 14.416 64.0556 14.416ZM73.2342 16.12C74.6862 16.12 75.8142 15.328 76.1142 13.96L74.8062 13.828C74.5902 14.584 74.0142 14.992 73.2222 14.992C72.1782 14.992 71.4942 14.176 71.4942 13.012C71.4942 11.848 72.1782 11.032 73.2222 11.032C74.0142 11.032 74.5902 11.428 74.8062 12.196L76.1142 12.064C75.8142 10.696 74.7222 9.904 73.2342 9.904C71.3622 9.904 70.0662 11.176 70.0662 13.012C70.0662 14.848 71.3622 16.12 73.2342 16.12ZM80.29 16.12C82.162 16.108 83.494 14.92 83.494 13.012C83.494 11.116 82.162 9.916 80.29 9.904C78.406 9.916 77.074 11.116 77.074 13.012C77.074 14.92 78.406 16.108 80.29 16.12ZM80.29 14.98C79.222 14.98 78.502 14.176 78.502 13.012C78.502 11.86 79.222 11.044 80.29 11.044C81.346 11.044 82.066 11.86 82.066 13.012C82.066 14.176 81.346 14.98 80.29 14.98ZM86.1843 16V7H84.7683V16H86.1843ZM90.6728 16.12C92.5448 16.108 93.8768 14.92 93.8768 13.012C93.8768 11.116 92.5448 9.916 90.6728 9.904C88.7888 9.916 87.4568 11.116 87.4568 13.012C87.4568 14.92 88.7888 16.108 90.6728 16.12ZM90.6728 14.98C89.6048 14.98 88.8848 14.176 88.8848 13.012C88.8848 11.86 89.6048 11.044 90.6728 11.044C91.7288 11.044 92.4488 11.86 92.4488 13.012C92.4488 14.176 91.7288 14.98 90.6728 14.98ZM96.5671 10.024H95.1511V16H96.5671V13.24C96.5671 11.776 97.2391 11.236 98.6911 11.236V9.904C97.6951 9.904 96.9271 10.324 96.5671 10.984V10.024ZM101.149 16V7H99.7331V16H101.149ZM103.418 8.932C103.874 8.932 104.27 8.548 104.27 8.068C104.27 7.6 103.874 7.216 103.418 7.216C102.938 7.216 102.542 7.6 102.542 8.068C102.542 8.548 102.938 8.932 103.418 8.932ZM104.126 16V10.024H102.698V16H104.126ZM109.095 9.904C108.219 9.904 107.475 10.264 107.115 10.888V7H105.687V16H107.115V15.148C107.475 15.772 108.219 16.12 109.095 16.12C110.703 16.12 111.987 14.944 111.987 13.024C111.987 11.104 110.703 9.904 109.095 9.904ZM108.807 14.932C107.799 14.932 107.055 14.2 107.055 13.024C107.055 11.848 107.799 11.092 108.807 11.092C109.815 11.092 110.559 11.848 110.559 13.024C110.559 14.2 109.815 14.932 108.807 14.932ZM114.348 16.12C114.828 16.12 115.212 15.736 115.212 15.268C115.212 14.8 114.828 14.404 114.348 14.404C113.892 14.404 113.496 14.8 113.496 15.268C113.496 15.736 113.892 16.12 114.348 16.12ZM119.887 16.12C121.339 16.12 122.467 15.328 122.767 13.96L121.459 13.828C121.243 14.584 120.667 14.992 119.875 14.992C118.831 14.992 118.147 14.176 118.147 13.012C118.147 11.848 118.831 11.032 119.875 11.032C120.667 11.032 121.243 11.428 121.459 12.196L122.767 12.064C122.467 10.696 121.375 9.904 119.887 9.904C118.015 9.904 116.719 11.176 116.719 13.012C116.719 14.848 118.015 16.12 119.887 16.12ZM126.942 16.12C128.814 16.108 130.146 14.92 130.146 13.012C130.146 11.116 128.814 9.916 126.942 9.904C125.058 9.916 123.726 11.116 123.726 13.012C123.726 14.92 125.058 16.108 126.942 16.12ZM126.942 14.98C125.874 14.98 125.154 14.176 125.154 13.012C125.154 11.86 125.874 11.044 126.942 11.044C127.998 11.044 128.718 11.86 128.718 13.012C128.718 14.176 127.998 14.98 126.942 14.98ZM138.345 9.904C137.505 9.904 136.845 10.288 136.461 10.948C136.185 10.288 135.525 9.904 134.577 9.904C133.833 9.904 133.233 10.204 132.849 10.732V10.024H131.421V16H132.849V12.328C132.933 11.404 133.461 11.044 134.085 11.044C134.721 11.044 135.189 11.44 135.189 12.16V16H136.605V12.604C136.605 11.476 137.169 11.044 137.853 11.044C138.489 11.044 138.945 11.428 138.945 12.16V16H140.373V11.704C140.373 10.588 139.605 9.904 138.345 9.904Z" fill="white"/>
</svg>
