<svg width="68" height="67" viewBox="0 0 68 67" fill="none" xmlns="http://www.w3.org/2000/svg">
<g filter="url(#filter0_d_202_170)">
<path d="M8.5752 40.1696H59.4227V45.2543H8.5752V40.1696ZM8.5752 30H59.4227V34.0678H8.5752V30Z" fill="#FF7474"/>
<path d="M28.9142 29.9999L24.8464 34.0676L22.8125 36.1016L20.7786 34.0678L16.7108 30H28.9142V29.9999ZM8.5752 25.9321H59.4227V29.9999H8.5752V25.9321Z" fill="#FFE079"/>
<path d="M63.4909 36.1016V38.1355C63.4909 39.2542 62.5756 40.1694 61.457 40.1694H6.54175C5.42307 40.1694 4.50781 39.2542 4.50781 38.1355V36.1016C4.50781 34.9829 5.42307 34.0676 6.54175 34.0676H20.7791L22.813 36.1016L24.8469 34.0676H61.4571C62.5756 34.0677 63.4909 34.983 63.4909 36.1016Z" fill="#AE938D"/>
<path d="M61.4568 52.3729V54.4068C61.4568 56.644 59.6263 58.4745 57.3891 58.4745H10.6095C8.37222 58.4745 6.54172 56.644 6.54172 54.4068V52.3729C6.54172 51.2542 7.45697 50.3389 8.57565 50.3389H59.4231C60.5416 50.3389 61.4568 51.2542 61.4568 52.3729ZM33.9992 1.52539C63.4907 1.52539 61.4568 23.8982 61.4568 23.8982C61.4568 25.1186 60.6432 25.9322 59.4229 25.9322H8.57554C7.3552 25.9322 6.5416 25.1186 6.5416 23.8982C6.5416 23.8982 4.50778 1.52539 33.9992 1.52539Z" fill="#F2EDDA"/>
<path d="M59.4227 45.2542H8.5752V50.3389H59.4227V45.2542Z" fill="#50DD8E"/>
<path d="M57.3898 58.983H10.6102C8.06787 58.983 6.03394 56.9491 6.03394 54.4068V52.3728C6.03394 50.9491 7.15262 49.8305 8.57627 49.8305H59.4237C60.8475 49.8305 61.9661 50.9492 61.9661 52.3728V54.4068C61.9661 56.9492 59.9321 58.983 57.3898 58.983ZM8.57627 50.8475C7.76267 50.8475 7.05085 51.5594 7.05085 52.373V54.4069C7.05085 56.3391 8.67792 57.9662 10.6102 57.9662H57.3898C59.322 57.9662 60.9492 56.3392 60.9492 54.4069V52.373C60.9492 51.5594 60.2373 50.8475 59.4237 50.8475H8.57627ZM56.3729 46.7797C55.1525 46.7797 54.5424 46.1695 53.9322 45.661C53.4237 45.1525 53.017 44.7457 52.3051 44.7457C51.5933 44.7457 51.0848 45.1525 50.6781 45.661C50.1695 46.1695 49.5594 46.7797 48.2374 46.7797C46.9154 46.7797 46.4069 46.1695 45.7967 45.661C45.2882 45.1525 44.8814 44.7457 44.1696 44.7457C43.4578 44.7457 42.9493 45.1525 42.5425 45.661C42.034 46.1695 41.4239 46.7797 40.1019 46.7797C38.7799 46.7797 38.2714 46.1695 37.6612 45.661C37.1527 45.1525 36.7459 44.7457 36.0341 44.7457C35.3223 44.7457 34.8138 45.1525 34.407 45.661C33.8985 46.1695 33.2884 46.7797 31.9664 46.7797C30.6444 46.7797 30.1359 46.1695 29.5257 45.661C29.0172 45.1525 28.6104 44.7457 27.8986 44.7457C27.1868 44.7457 26.6783 45.1525 26.2715 45.661C25.763 46.1695 25.1528 46.7797 23.8309 46.7797C22.5089 46.7797 22.0003 46.1695 21.3902 45.661C20.8817 45.1525 20.4749 44.7457 19.7631 44.7457C19.0513 44.7457 18.5428 45.1525 18.136 45.661C17.6275 46.1695 17.0173 46.7797 15.6953 46.7797C14.3734 46.7797 13.8648 46.1695 13.2547 45.661C12.7462 45.1525 12.3394 44.7457 11.6276 44.7457C9.79708 44.7457 7.96658 46.5762 7.96658 46.6779C7.76315 46.8813 7.45806 46.8813 7.25475 46.6779C7.05132 46.4744 7.05132 46.1694 7.25475 45.9661C7.35641 45.8644 9.492 43.8305 11.7294 43.8305C12.9497 43.8305 13.5599 44.4406 14.17 44.9491C14.6786 45.4577 15.0853 45.8644 15.7971 45.8644C16.5089 45.8644 17.0175 45.4577 17.4242 44.9491C17.9327 44.4406 18.5429 43.8305 19.8649 43.8305C21.1869 43.8305 21.6954 44.4406 22.3055 44.9491C22.8141 45.4577 23.2208 45.8644 23.9326 45.8644C24.6445 45.8644 25.153 45.4577 25.5597 44.9491C26.0682 44.4406 26.6784 43.8305 28.0004 43.8305C29.3224 43.8305 29.8309 44.4406 30.4411 44.9491C30.9496 45.4577 31.3563 45.8644 32.0681 45.8644C32.78 45.8644 33.2885 45.4577 33.6952 44.9491C34.2037 44.4406 34.8139 43.8305 36.1359 43.8305C37.4579 43.8305 37.9664 44.4406 38.5766 44.9491C39.0851 45.4577 39.4918 45.8644 40.2036 45.8644C40.9155 45.8644 41.424 45.4577 41.8307 44.9491C42.3392 44.4406 42.9494 43.8305 44.2714 43.8305C45.5934 43.8305 46.1019 44.4406 46.7121 44.9491C47.2206 45.4577 47.6273 45.8644 48.3391 45.8644C49.051 45.8644 49.5595 45.4577 49.9662 44.9491C50.4747 44.4406 51.0849 43.8305 52.4069 43.8305C53.7289 43.8305 54.2374 44.4406 54.8476 44.9491C55.3561 45.4577 55.7628 45.8644 56.4747 45.8644C58.3052 45.8644 60.1357 44.0339 60.1357 43.9322C60.3391 43.7288 60.6442 43.7288 60.8475 43.9322C61.0508 44.1357 61.0509 44.4408 60.8475 44.6441C60.7457 44.6441 58.6101 46.7797 56.3729 46.7797ZM61.4575 40.678H6.54233C5.11868 40.678 4 39.5594 4 38.1356V36.1017C4 34.678 5.11868 33.5594 6.54233 33.5594H15.6949C16 33.5594 16.2034 33.7628 16.2034 34.0679C16.2034 34.373 16 34.5764 15.6949 34.5764H6.54233C5.72873 34.5764 5.01691 35.2882 5.01691 36.1018V38.1356C5.01691 38.9492 5.72873 39.6611 6.54233 39.6611H61.4575C62.2711 39.6611 62.983 38.9492 62.983 38.1356V36.1017C62.983 35.2881 62.2711 34.5763 61.4575 34.5763H29.9322C29.6271 34.5763 29.4237 34.3728 29.4237 34.0678C29.4237 33.7627 29.6271 33.5592 29.9322 33.5592H61.4575C62.8813 33.5592 63.9999 34.6779 63.9999 36.1016V38.1356C64 39.5594 62.8813 40.678 61.4575 40.678ZM22.8136 36.6102C22.7119 36.6102 22.5085 36.6102 22.4068 36.5086L16.4068 30.5085H8.47461C8.16953 30.5085 7.9661 30.3051 7.9661 30C7.9661 29.6949 8.16953 29.4915 8.47461 29.4915H16.6102C16.7119 29.4915 16.9153 29.5931 17.017 29.5931L22.7119 35.2881L28.4068 29.5933C28.5084 29.4916 28.6102 29.4916 28.8135 29.4916H59.322C59.627 29.4916 59.8305 29.695 59.8305 30.0001C59.8305 30.3052 59.627 30.5086 59.322 30.5086H29.0169L23.0169 36.5087C23.1187 36.6102 22.9152 36.6102 22.8136 36.6102ZM59.4237 26.4408H8.57627C7.05085 26.4408 6.03394 25.4239 6.03394 23.8984C6.03394 23.5933 5.32211 15.4577 11.322 8.94929C16.1017 3.6612 23.7288 1.01709 33.9999 1.01709C44.271 1.01709 51.8983 3.66108 56.678 8.94917C62.5762 15.3559 62.0678 23.3898 61.9661 23.8983C61.9661 25.4237 60.9492 26.4408 59.4237 26.4408ZM33.9999 2.034C24.0338 2.034 16.7118 4.57633 12.0339 9.66111C6.33902 15.8645 6.94919 23.7967 7.05085 23.8983C7.05085 24.9152 7.66101 25.4237 8.57627 25.4237H59.4237C60.339 25.4237 60.9492 24.8136 60.9492 23.8983C60.9492 23.7967 61.5593 15.8645 55.8644 9.66099C51.2881 4.57633 43.9661 2.034 33.9999 2.034ZM38.5762 12.2034C37.966 12.2034 37.5593 11.7967 37.5593 11.1865C37.5593 10.5764 37.966 10.1696 38.5762 10.1696C39.1864 10.1696 39.5931 10.5764 39.5931 11.1865C39.5932 11.7967 39.1864 12.2034 38.5762 12.2034ZM50.7796 11.1865C50.1694 11.1865 49.7627 10.7798 49.7627 10.1696C49.7627 9.55946 50.1694 9.15272 50.7796 9.15272C51.3898 9.15272 51.7965 9.55946 51.7965 10.1696C51.7966 10.7797 51.3898 11.1865 50.7796 11.1865ZM43.661 10.1695C43.0508 10.1695 42.6441 9.76277 42.6441 9.1526C42.6441 8.54243 43.0508 8.13569 43.661 8.13569C44.2712 8.13569 44.6779 8.54243 44.6779 9.1526C44.6779 9.76277 44.2712 10.1695 43.661 10.1695ZM32.4745 8.13569C31.8643 8.13569 31.4576 7.72895 31.4576 7.11878C31.4576 6.50861 31.8643 6.10187 32.4745 6.10187C33.0847 6.10187 33.4914 6.50861 33.4914 7.11878C33.4914 7.72895 33.0847 8.13569 32.4745 8.13569ZM39.5932 6.10175C38.9831 6.10175 38.5763 5.69501 38.5763 5.08484C38.5763 4.47467 38.9831 4.06794 39.5932 4.06794C40.2034 4.06794 40.6101 4.47467 40.6101 5.08484C40.6101 5.69501 40.2034 6.10175 39.5932 6.10175Z" fill="#51565F"/>
</g>
<defs>
<filter id="filter0_d_202_170" x="0" y="0" width="68" height="68" filterUnits="userSpaceOnUse" color-interpolation-filters="sRGB">
<feFlood flood-opacity="0" result="BackgroundImageFix"/>
<feColorMatrix in="SourceAlpha" type="matrix" values="0 0 0 0 0 0 0 0 0 0 0 0 0 0 0 0 0 0 127 0" result="hardAlpha"/>
<feOffset dy="4"/>
<feGaussianBlur stdDeviation="2"/>
<feComposite in2="hardAlpha" operator="out"/>
<feColorMatrix type="matrix" values="0 0 0 0 0 0 0 0 0 0 0 0 0 0 0 0 0 0 0.25 0"/>
<feBlend mode="normal" in2="BackgroundImageFix" result="effect1_dropShadow_202_170"/>
<feBlend mode="normal" in="SourceGraphic" in2="effect1_dropShadow_202_170" result="shape"/>
</filter>
</defs>
</svg>
